# xmcd CD database file
#
# Track frame offsets:
#	150
#	16208
#	41810
#	59183
#	74783
#	86541
#	106943
#	127578
#	141872
#	156104
#
# Disc length: 2757 seconds
#
# Revision: 0
# Processed by: cddbd v1.5.2PL0 Copyright (c) Steve Scherf et al.
# Submitted via: CDex 1.79
#
DISCID=8a0ac30a
DTITLE=The Booty Hunters - Chernobilly
DYEAR=1900
DGENRE=Country
TTITLE0=Founding Two
TTITLE1=Chernobilly
TTITLE2=The Sheriff Of Cranston
TTITLE3=Lies
TTITLE4=Endless River
TTITLE5=Bad Times
TTITLE6=Double Fistin Woman
TTITLE7=Lost In Town
TTITLE8=Rail Road Train
TTITLE9=What The Hell Its Goin On Right Here!
EXTD=
EXTT0=
EXTT1=
EXTT2=
EXTT3=
EXTT4=
EXTT5=
EXTT6=
EXTT7=
EXTT8=
EXTT9=
PLAYORDER=
